<svg width="1440" height="1024" viewBox="0 0 1440 1024" fill="none" xmlns="http://www.w3.org/2000/svg">
<g clip-path="url(#clip0_41_163)">
<rect width="1440" height="1024" fill="white"/>
<path d="M1442 138.079V1024H1371.29C1344.59 852.475 1302.04 822.344 1352 690C1365.72 653.663 1369.57 558.545 1321.28 478.951C1273 399.356 1273.16 331.499 1278.17 293.807C1288.51 215.943 1351.15 135.12 1442 138.079Z" fill="url(#paint0_linear_41_163)"/>
<path d="M930 0C973.459 23.02 1030.3 123.163 1039.5 204.5C1051 306.172 1085.96 479.584 1212.5 493.012C1339.04 506.441 1332.63 481.502 1440 493.012V0H930Z" fill="url(#paint1_linear_41_163)"/>
<path d="M661.062 0C654.739 45.2243 674.611 172.945 776.223 164C877.834 155.055 1001.27 150.004 1064.72 250.473C1100.66 307.389 1144.71 384.492 1213.75 378.691C1288.17 372.437 1330 287.599 1356 250.473C1396.1 193.222 1434.13 212.703 1440 211.709V0H661.062Z" fill="url(#paint2_linear_41_163)"/>
<path d="M0 558C18.1513 672.612 103.983 969.168 202 961.898C324.521 952.809 335 868.5 444.706 887.678C554.412 906.855 567.227 969.471 647.395 961.898C727.563 954.324 770.059 931.808 823 848.5C875.941 765.192 868.5 674.446 978.5 660C1088.5 645.554 1197.02 786.368 1254.5 800C1311.98 813.632 1440 745.296 1440 745.296V1024H0V558Z" fill="url(#paint3_linear_41_163)"/>
<path d="M464 1023C494.08 901.108 588.773 847.117 749.591 908.053C910.409 968.989 951.886 860.055 1011.5 782.5C1071.11 704.945 1207.09 773.717 1299.98 762.638C1392.86 751.558 1440 656 1440 656V1023H464Z" fill="url(#paint4_linear_41_163)"/>
<path d="M-2.74598 861.562C39.7278 905.814 158.597 981.177 294.285 928.61C374.441 897.556 450.718 888.368 511.754 895.698" stroke="white" stroke-width="3" stroke-linejoin="round"/>
<path d="M-2.55727 847.262C39.9165 891.515 158.786 966.877 294.473 914.31C374.547 883.288 450.75 874.087 511.754 881.375" stroke="white" stroke-width="3" stroke-linejoin="round"/>
<path d="M-2.81868 835.265C39.6551 879.517 158.525 954.88 294.212 902.313C374.4 871.246 450.706 862.064 511.754 869.41" stroke="white" stroke-width="3" stroke-linejoin="round"/>
<path d="M-3.14534 820.269C39.3284 864.521 158.198 939.884 293.885 887.316C375.096 855.854 452.324 846.837 513.754 854.702" stroke="white" stroke-width="3" stroke-linejoin="round"/>
<path d="M-3.47203 805.272C39.0018 849.525 157.871 924.887 293.559 872.32C374.033 841.143 450.597 832.005 511.754 839.496" stroke="white" stroke-width="3" stroke-linejoin="round"/>
<path d="M-3.7333 793.275C38.7405 837.527 157.61 912.89 293.297 860.323C374.106 829.016 450.972 819.933 512.254 827.593" stroke="white" stroke-width="3" stroke-linejoin="round"/>
<path d="M-4.08183 777.279C38.392 821.531 157.261 896.894 292.949 844.326C374.291 812.813 451.638 803.818 513.117 811.751" stroke="white" stroke-width="3" stroke-linejoin="round"/>
<path d="M-4.34312 765.282C38.1307 809.534 157 884.897 292.687 832.329C374.427 800.662 452.131 791.733 513.754 799.871" stroke="white" stroke-width="3" stroke-linejoin="round"/>
<path d="M-4.62625 752.285C37.8475 796.537 156.717 871.9 292.404 819.332C374.269 787.617 452.086 778.709 513.754 786.912" stroke="white" stroke-width="3" stroke-linejoin="round"/>
<path d="M-4.95292 737.288C37.5209 781.541 156.39 856.903 292.078 804.336C373.644 772.736 451.193 763.778 512.754 771.826" stroke="white" stroke-width="3" stroke-linejoin="round"/>
<path d="M-5.30132 721.292C37.1725 765.544 156.042 840.907 291.729 788.34C373.45 756.68 451.138 747.748 512.754 755.876" stroke="white" stroke-width="3" stroke-linejoin="round"/>
<path d="M-5.64978 705.296C36.824 749.548 155.693 824.911 291.381 772.344C373.256 740.624 451.082 731.718 512.754 739.926" stroke="white" stroke-width="3" stroke-linejoin="round"/>
<path d="M-6.06353 686.3C36.4103 730.553 155.28 805.915 290.967 753.348C373.025 721.557 451.017 712.683 512.754 720.986" stroke="white" stroke-width="3" stroke-linejoin="round"/>
<path d="M-6.41203 670.304C36.0618 714.556 154.931 789.919 290.619 737.352C373.275 705.329 451.806 696.558 513.754 705.174" stroke="white" stroke-width="3" stroke-linejoin="round"/>
<path d="M-6.73867 655.308C35.7351 699.56 154.605 774.923 290.292 722.355C372.871 690.363 451.333 681.578 513.254 690.153" stroke="white" stroke-width="3" stroke-linejoin="round"/>
<path d="M-6.99999 643.311C35.4738 687.563 154.343 762.926 290.031 710.358C372.726 678.321 451.292 669.556 513.254 678.193" stroke="white" stroke-width="3" stroke-linejoin="round"/>
<circle cx="400.254" cy="865.251" r="67.5" stroke="#0F456B" stroke-width="9" stroke-linejoin="round"/>
<path d="M1053.6 1107.09C1041.68 1055.42 985.44 937.864 855.817 881.06C779.242 847.504 715.988 804.202 672.303 761.356" stroke="white" stroke-width="3" stroke-linejoin="round"/>
<path d="M1046.7 1114.96C1034.78 1063.28 978.544 945.728 848.921 888.924C772.425 855.403 709.222 812.156 665.541 769.352" stroke="white" stroke-width="3" stroke-linejoin="round"/>
<path d="M1041.24 1121.82C1029.32 1070.14 973.082 952.592 843.459 895.789C766.854 862.219 703.579 818.897 659.892 776.033" stroke="white" stroke-width="3" stroke-linejoin="round"/>
<path d="M1034.41 1130.4C1022.49 1078.72 966.255 961.172 836.632 904.369C759.05 870.371 695.141 826.371 651.404 782.975" stroke="white" stroke-width="3" stroke-linejoin="round"/>
<path d="M1027.58 1138.98C1015.67 1087.31 959.428 969.753 829.804 912.949C752.926 879.26 689.473 835.748 645.771 792.735" stroke="white" stroke-width="3" stroke-linejoin="round"/>
<path d="M1022.12 1145.84C1010.21 1094.17 953.966 976.617 824.343 919.814C747.145 885.984 683.484 842.25 639.765 799.063" stroke="white" stroke-width="3" stroke-linejoin="round"/>
<path d="M1014.84 1155C1002.92 1103.32 946.684 985.77 817.06 928.966C739.353 894.913 675.362 850.825 631.62 807.36" stroke="white" stroke-width="3" stroke-linejoin="round"/>
<path d="M1009.38 1161.86C997.462 1110.19 941.222 992.634 811.598 935.83C733.512 901.612 669.277 857.259 625.52 813.589" stroke="white" stroke-width="3" stroke-linejoin="round"/>
<path d="M1003.46 1169.3C991.545 1117.62 935.305 1000.07 805.682 943.267C727.476 908.995 663.163 864.56 619.402 820.824" stroke="white" stroke-width="3" stroke-linejoin="round"/>
<path d="M996.634 1177.88C984.717 1126.2 928.478 1008.65 798.854 951.847C720.933 917.7 656.804 873.463 613.053 829.882" stroke="white" stroke-width="3" stroke-linejoin="round"/>
<path d="M989.352 1187.03C977.435 1135.36 921.195 1017.8 791.572 960.999C713.503 926.788 649.279 882.448 605.523 838.787" stroke="white" stroke-width="3" stroke-linejoin="round"/>
<path d="M982.07 1196.18C970.153 1144.51 913.913 1026.96 784.29 970.152C706.074 935.876 641.755 891.433 597.993 847.693" stroke="white" stroke-width="3" stroke-linejoin="round"/>
<path d="M973.422 1207.05C961.505 1155.38 905.265 1037.82 775.642 981.02C697.251 946.668 632.819 902.103 589.052 858.268" stroke="white" stroke-width="3" stroke-linejoin="round"/>
<path d="M966.139 1216.2C954.223 1164.53 897.983 1046.98 768.359 990.173C689.397 955.57 624.597 910.605 580.815 866.461" stroke="white" stroke-width="3" stroke-linejoin="round"/>
<path d="M959.312 1224.78C947.395 1173.11 891.156 1055.56 761.532 998.753C682.643 964.182 617.891 919.269 574.11 875.165" stroke="white" stroke-width="3" stroke-linejoin="round"/>
<path d="M953.85 1231.65C941.934 1179.97 885.694 1062.42 756.07 1005.62C677.07 970.998 612.247 926.007 568.464 881.843" stroke="white" stroke-width="3" stroke-linejoin="round"/>
<path d="M354.13 122.613C343.087 188.077 429.703 310.509 519.413 327.931C702.103 363.408 1144.13 195.706 1190.33 304.739C1200.29 328.241 1235.59 455.558 1285.5 456.11C1335.42 456.662 1419.13 385.841 1452.23 399.381" stroke="white" stroke-width="2"/>
<path d="M356.958 135.973C345.957 201.636 432.666 324.509 522.4 342.045C705.139 377.755 1147.12 209.82 1193.4 319.226C1203.37 342.808 1238.76 470.549 1288.68 471.136C1338.61 471.723 1422.29 400.735 1455.4 414.339" stroke="white" stroke-width="2"/>
<path d="M360.846 154.343C349.803 219.808 436.418 342.24 526.129 359.661C708.819 395.139 1150.85 227.436 1197.04 336.469C1207 359.971 1242.31 487.289 1292.22 487.841C1342.13 488.393 1425.85 417.572 1458.95 431.112" stroke="white" stroke-width="2"/>
<path d="M364.027 169.373C352.985 234.838 439.6 357.27 529.31 374.691C712 410.169 1154.03 242.467 1200.23 351.499C1210.18 375.001 1245.49 502.319 1295.4 502.871C1345.32 503.423 1429.03 432.602 1462.13 446.142" stroke="white" stroke-width="2"/>
<path d="M368.269 189.414C357.226 254.878 443.841 377.31 533.552 394.732C716.241 430.209 1158.27 262.507 1204.47 371.54C1214.43 395.042 1249.73 522.359 1299.64 522.911C1349.56 523.463 1433.27 452.642 1466.37 466.182" stroke="white" stroke-width="2"/>
<path d="M371.45 204.444C360.449 270.107 447.158 392.98 536.892 410.516C719.632 446.226 1161.61 278.291 1207.89 387.697C1217.86 411.279 1253.25 539.02 1303.18 539.607C1353.1 540.194 1436.78 469.206 1469.89 482.81" stroke="white" stroke-width="2"/>
<path d="M374.985 221.144C363.942 286.609 450.557 409.041 540.267 426.462C722.957 461.94 1164.99 294.237 1211.18 403.27C1221.14 426.772 1256.44 554.09 1306.36 554.642C1356.27 555.194 1439.99 484.372 1473.09 497.913" stroke="white" stroke-width="2"/>
<path d="M377.813 234.504C366.77 299.969 453.385 422.401 543.095 439.822C725.785 475.3 1167.81 307.598 1214.01 416.63C1223.97 440.132 1259.27 567.45 1309.19 568.002C1359.1 568.554 1442.82 497.733 1475.92 511.273" stroke="white" stroke-width="2"/>
<path d="M381.347 251.204C370.305 316.669 456.92 439.101 546.63 456.523C729.32 492 1171.35 324.298 1217.55 433.331C1227.5 456.833 1262.81 584.15 1312.72 584.702C1362.64 585.254 1446.35 514.433 1479.45 527.973" stroke="white" stroke-width="2"/>
<path d="M384.882 267.905C373.881 333.567 460.59 456.441 550.324 473.977C733.063 509.687 1175.04 341.752 1221.32 451.158C1231.29 474.74 1266.69 602.481 1316.61 603.068C1366.53 603.655 1450.21 532.667 1483.32 546.271" stroke="white" stroke-width="2"/>
<path d="M394.683 313.611C383.682 379.274 470.391 502.148 560.126 519.683C742.865 555.394 1184.84 387.459 1231.12 496.864C1241.1 520.447 1276.49 648.187 1326.41 648.774C1376.33 649.361 1460.01 578.373 1493.13 591.978" stroke="white" stroke-width="2"/>
<path d="M397.679 356.693C386.678 422.356 473.386 545.229 563.121 562.765C745.86 598.475 1187.84 430.54 1234.12 539.946C1244.09 563.528 1279.48 691.269 1329.4 691.856C1379.33 692.443 1463.01 621.455 1496.12 635.06" stroke="white" stroke-width="2"/>
<path d="M388.77 286.275C377.727 351.74 464.342 474.172 554.053 491.593C736.743 527.071 1178.77 359.368 1224.97 468.401C1234.93 491.903 1270.23 619.221 1320.14 619.773C1370.06 620.325 1453.77 549.503 1486.87 563.044" stroke="white" stroke-width="2"/>
<path d="M398.572 331.981C387.529 397.446 474.144 519.878 563.854 537.3C746.544 572.777 1188.57 405.075 1234.77 514.107C1244.73 537.61 1280.03 664.927 1329.95 665.479C1379.86 666.031 1463.58 595.21 1496.68 608.75" stroke="white" stroke-width="2"/>
<path d="M401.567 375.063C390.524 440.528 477.139 562.96 566.849 580.381C749.539 615.859 1191.57 448.156 1237.77 557.189C1247.72 580.691 1283.03 708.009 1332.94 708.561C1382.85 709.113 1466.57 638.292 1499.67 651.832" stroke="white" stroke-width="2"/>
<path d="M392.305 302.975C381.262 368.44 467.877 490.872 557.587 508.293C740.277 543.771 1182.31 376.069 1228.5 485.101C1238.46 508.603 1273.76 635.921 1323.68 636.473C1373.59 637.025 1457.31 566.204 1490.41 579.744" stroke="white" stroke-width="2"/>
<path d="M402.106 348.682C391.063 414.146 477.679 536.578 567.389 554C750.079 589.477 1192.11 421.775 1238.3 530.808C1248.26 554.31 1283.57 681.627 1333.48 682.179C1383.39 682.732 1467.11 611.91 1500.21 625.45" stroke="white" stroke-width="2"/>
<path d="M405.102 391.763C394.059 457.228 480.674 579.66 570.384 597.081C753.074 632.559 1195.1 464.857 1241.3 573.889C1251.26 597.391 1286.56 724.709 1336.48 725.261C1386.39 725.813 1470.11 654.992 1503.21 668.532" stroke="white" stroke-width="2"/>
<mask id="mask0_41_163" style="mask-type:alpha" maskUnits="userSpaceOnUse" x="930" y="573" width="217" height="217">
<circle cx="1038.5" cy="681.5" r="107.5" fill="white" stroke="#6A6161" stroke-width="2" stroke-linejoin="round"/>
</mask>
<g mask="url(#mask0_41_163)">
<line x1="844.112" y1="732.75" x2="1095.8" y2="493.918" stroke="#6A6161" stroke-opacity="0.51" stroke-width="5" stroke-linejoin="round"/>
<line x1="878.795" y1="773.461" x2="1130.49" y2="534.629" stroke="#6A6161" stroke-opacity="0.51" stroke-width="5" stroke-linejoin="round"/>
<line x1="913.479" y1="814.171" x2="1165.17" y2="575.339" stroke="#6A6161" stroke-opacity="0.51" stroke-width="5" stroke-linejoin="round"/>
<line x1="950.562" y1="852.564" x2="1202.25" y2="613.732" stroke="#6A6161" stroke-opacity="0.51" stroke-width="5" stroke-linejoin="round"/>
<line x1="850.983" y1="744.666" x2="1102.67" y2="505.834" stroke="#6A6161" stroke-opacity="0.51" stroke-width="5" stroke-linejoin="round"/>
<line x1="885.667" y1="785.376" x2="1137.36" y2="546.544" stroke="#6A6161" stroke-opacity="0.51" stroke-width="5" stroke-linejoin="round"/>
<line x1="920.35" y1="826.087" x2="1172.04" y2="587.255" stroke="#6A6161" stroke-opacity="0.51" stroke-width="5" stroke-linejoin="round"/>
<line x1="957.433" y1="864.48" x2="1209.12" y2="625.648" stroke="#6A6161" stroke-opacity="0.51" stroke-width="5" stroke-linejoin="round"/>
<line x1="860.254" y1="754.264" x2="1111.94" y2="515.432" stroke="#6A6161" stroke-opacity="0.51" stroke-width="5" stroke-linejoin="round"/>
<line x1="894.937" y1="794.975" x2="1146.63" y2="556.143" stroke="#6A6161" stroke-opacity="0.51" stroke-width="5" stroke-linejoin="round"/>
<line x1="929.621" y1="835.686" x2="1181.31" y2="596.854" stroke="#6A6161" stroke-opacity="0.51" stroke-width="5" stroke-linejoin="round"/>
<line x1="966.703" y1="874.079" x2="1218.39" y2="635.247" stroke="#6A6161" stroke-opacity="0.51" stroke-width="5" stroke-linejoin="round"/>
<line x1="867.125" y1="766.18" x2="1118.82" y2="527.348" stroke="#6A6161" stroke-opacity="0.51" stroke-width="5" stroke-linejoin="round"/>
<line x1="901.808" y1="806.891" x2="1153.5" y2="568.059" stroke="#6A6161" stroke-opacity="0.51" stroke-width="5" stroke-linejoin="round"/>
<line x1="936.492" y1="847.602" x2="1188.18" y2="608.77" stroke="#6A6161" stroke-opacity="0.51" stroke-width="5" stroke-linejoin="round"/>
<line x1="973.574" y1="885.995" x2="1225.26" y2="647.163" stroke="#6A6161" stroke-opacity="0.51" stroke-width="5" stroke-linejoin="round"/>
</g>
<path d="M918.406 -19.8843C961.286 32.5185 1059.75 80.1574 996.226 312M897.759 -19.8843C940.64 32.5185 1036.72 80.1574 973.197 312M874.731 -23.8542C917.611 28.5486 1011.31 70.6296 947.787 302.472M855.673 -18.2963C898.553 34.1065 985.108 80.1574 921.581 312M831.056 -19.8843C873.936 32.5185 964.463 71.4236 900.936 303.266M582.507 -18.2963C579.066 25.108 592.036 136.054 655.563 194.491M606.33 -18.2963C602.889 25.108 615.859 136.054 679.385 194.491M624.594 -18.2963C621.153 25.108 642.858 136.054 706.384 194.491M645.24 -18.2963C641.799 25.108 665.092 120.65 724.648 194.491M664.298 -18.2963C660.857 25.108 693.679 109.535 746.089 194.491M683.356 -18.2963C679.915 25.108 715.913 109.535 768.323 194.491M702.414 -18.2963C698.973 25.108 742.118 109.535 794.528 194.491M720.678 -18.2963C717.237 25.108 765.146 79.3634 809.615 194.491M742.118 -18.2963C738.677 25.108 786.587 72.2176 831.056 187.345M759.588 -18.2963C759.588 17.4329 808.821 72.2176 853.29 187.345M778.646 -18.2963C790.558 21.4028 847.732 84.9213 869.966 187.345M785.793 -31C812.792 11.081 869.966 84.9213 892.201 187.345M815.968 -18.2963C849.32 15.8449 907.288 103.977 907.288 194.491" stroke="#FEFCFC" stroke-width="3" stroke-linejoin="round"/>
<path d="M756.558 75H753.921V69.5156H748.779V75H746.143V62.2031H748.779V67.3887H753.921V62.2031H756.558V75ZM769.381 68.8916C769.381 70.1514 769.158 71.2559 768.713 72.2051C768.268 73.1543 767.629 73.8867 766.797 74.4023C765.971 74.918 765.021 75.1758 763.949 75.1758C762.889 75.1758 761.942 74.9209 761.11 74.4111C760.278 73.9014 759.634 73.1748 759.177 72.2314C758.72 71.2822 758.488 70.1924 758.482 68.9619V68.3291C758.482 67.0693 758.708 65.9619 759.159 65.0068C759.616 64.0459 760.258 63.3105 761.084 62.8008C761.916 62.2852 762.865 62.0273 763.932 62.0273C764.998 62.0273 765.944 62.2852 766.771 62.8008C767.603 63.3105 768.244 64.0459 768.695 65.0068C769.152 65.9619 769.381 67.0664 769.381 68.3203V68.8916ZM766.709 68.3115C766.709 66.9697 766.469 65.9502 765.988 65.2529C765.508 64.5557 764.822 64.207 763.932 64.207C763.047 64.207 762.364 64.5527 761.884 65.2441C761.403 65.9297 761.16 66.9375 761.154 68.2676V68.8916C761.154 70.1982 761.395 71.2119 761.875 71.9326C762.355 72.6533 763.047 73.0137 763.949 73.0137C764.834 73.0137 765.514 72.668 765.988 71.9766C766.463 71.2793 766.703 70.2656 766.709 68.9355V68.3115ZM774.742 62.2031L778.029 71.4844L781.299 62.2031H784.762V75H782.116V71.502L782.38 65.4639L778.926 75H777.115L773.67 65.4727L773.934 71.502V75H771.297V62.2031H774.742ZM794.764 69.4541H789.701V72.8818H795.643V75H787.064V62.2031H795.625V64.3389H789.701V67.3887H794.764V69.4541Z" fill="black"/>
<path d="M850.779 69.4912V74H848.143V61.2031H853.135C854.096 61.2031 854.939 61.3789 855.666 61.7305C856.398 62.082 856.961 62.583 857.354 63.2334C857.746 63.8779 857.942 64.6133 857.942 65.4395C857.942 66.6934 857.512 67.6836 856.65 68.4102C855.795 69.1309 854.608 69.4912 853.091 69.4912H850.779ZM850.779 67.3555H853.135C853.832 67.3555 854.362 67.1914 854.726 66.8633C855.095 66.5352 855.279 66.0664 855.279 65.457C855.279 64.8301 855.095 64.3232 854.726 63.9365C854.356 63.5498 853.847 63.3506 853.196 63.3389H850.779V67.3555ZM865.129 69.3154H863.028V74H860.392V61.2031H865.147C866.658 61.2031 867.824 61.54 868.645 62.2139C869.465 62.8877 869.875 63.8398 869.875 65.0703C869.875 65.9434 869.685 66.6729 869.304 67.2588C868.929 67.8389 868.358 68.3018 867.59 68.6475L870.359 73.877V74H867.528L865.129 69.3154ZM863.028 67.1797H865.155C865.818 67.1797 866.33 67.0127 866.693 66.6787C867.057 66.3389 867.238 65.873 867.238 65.2812C867.238 64.6777 867.066 64.2031 866.72 63.8574C866.38 63.5117 865.856 63.3389 865.147 63.3389H863.028V67.1797ZM883.03 67.8916C883.03 69.1514 882.807 70.2559 882.362 71.2051C881.916 72.1543 881.278 72.8867 880.446 73.4023C879.619 73.918 878.67 74.1758 877.598 74.1758C876.537 74.1758 875.591 73.9209 874.759 73.4111C873.927 72.9014 873.282 72.1748 872.825 71.2314C872.368 70.2822 872.137 69.1924 872.131 67.9619V67.3291C872.131 66.0693 872.357 64.9619 872.808 64.0068C873.265 63.0459 873.906 62.3105 874.733 61.8008C875.565 61.2852 876.514 61.0273 877.58 61.0273C878.647 61.0273 879.593 61.2852 880.419 61.8008C881.251 62.3105 881.893 63.0459 882.344 64.0068C882.801 64.9619 883.03 66.0664 883.03 67.3203V67.8916ZM880.358 67.3115C880.358 65.9697 880.117 64.9502 879.637 64.2529C879.156 63.5557 878.471 63.207 877.58 63.207C876.696 63.207 876.013 63.5527 875.532 64.2441C875.052 64.9297 874.809 65.9375 874.803 67.2676V67.8916C874.803 69.1982 875.043 70.2119 875.524 70.9326C876.004 71.6533 876.696 72.0137 877.598 72.0137C878.483 72.0137 879.162 71.668 879.637 70.9766C880.112 70.2793 880.352 69.2656 880.358 67.9355V67.3115ZM893.275 68.7705H888.212V74H885.576V61.2031H893.908V63.3389H888.212V66.6436H893.275V68.7705ZM898.871 74H896.234V61.2031H898.871V74ZM904.589 71.8818H910.188V74H901.953V61.2031H904.589V71.8818ZM920.038 68.4541H914.975V71.8818H920.917V74H912.339V61.2031H920.899V63.3389H914.975V66.3887H920.038V68.4541Z" fill="black"/>
<path d="M968.642 72.4727C968.193 73.0094 967.56 73.4272 966.741 73.7261C965.922 74.0194 965.014 74.166 964.018 74.166C962.972 74.166 962.054 73.9391 961.262 73.4854C960.476 73.026 959.868 72.362 959.436 71.4932C959.01 70.6243 958.791 69.6034 958.78 68.4302V67.6084C958.78 66.402 958.982 65.3589 959.386 64.479C959.796 63.5936 960.382 62.9185 961.146 62.4536C961.915 61.9832 962.814 61.748 963.844 61.748C965.277 61.748 966.398 62.0911 967.206 62.7773C968.014 63.458 968.492 64.4513 968.642 65.7573H966.218C966.107 65.0656 965.861 64.5592 965.479 64.2383C965.103 63.9173 964.583 63.7568 963.918 63.7568C963.072 63.7568 962.427 64.075 961.984 64.7114C961.542 65.3478 961.318 66.2941 961.312 67.5503V68.3223C961.312 69.5895 961.553 70.5469 962.034 71.1943C962.516 71.8418 963.221 72.1655 964.151 72.1655C965.086 72.1655 965.753 71.9663 966.151 71.5679V69.4844H963.885V67.6499H968.642V72.4727ZM978.425 71.5098H974.059L973.229 74H970.581L975.08 61.9141H977.388L981.912 74H979.264L978.425 71.5098ZM974.731 69.4927H977.753L976.234 64.9688L974.731 69.4927ZM986.466 71.9995H991.753V74H983.975V61.9141H986.466V71.9995ZM1001.4 68.7622H996.615V71.9995H1002.23V74H994.124V61.9141H1002.21V63.9312H996.615V66.8115H1001.4V68.7622ZM1009.1 69.5757H1007.11V74H1004.62V61.9141H1009.11C1010.54 61.9141 1011.64 62.2323 1012.42 62.8687C1013.19 63.505 1013.58 64.4043 1013.58 65.5664C1013.58 66.391 1013.4 67.0799 1013.04 67.6333C1012.68 68.1812 1012.15 68.6183 1011.42 68.9448L1014.03 73.8838V74H1011.36L1009.1 69.5757ZM1007.11 67.5586H1009.12C1009.75 67.5586 1010.23 67.4009 1010.57 67.0854C1010.92 66.7645 1011.09 66.3245 1011.09 65.7656C1011.09 65.1956 1010.92 64.7474 1010.6 64.4209C1010.28 64.0944 1009.78 63.9312 1009.11 63.9312H1007.11V67.5586ZM1019.06 74H1016.57V61.9141H1019.06V74Z" fill="black"/>
<path d="M1057.08 75V62.9141H1060.8C1061.86 62.9141 1062.81 63.1548 1063.65 63.6362C1064.49 64.1121 1065.14 64.7928 1065.61 65.6782C1066.08 66.5581 1066.32 67.5597 1066.32 68.6831V69.2393C1066.32 70.3626 1066.09 71.3615 1065.62 72.2358C1065.16 73.1102 1064.51 73.7881 1063.67 74.2695C1062.83 74.751 1061.88 74.9945 1060.82 75H1057.08ZM1059.57 64.9312V72.9995H1060.77C1061.75 72.9995 1062.49 72.6813 1063.01 72.0449C1063.52 71.4085 1063.78 70.4982 1063.79 69.314V68.6748C1063.79 67.4463 1063.54 66.5166 1063.03 65.8857C1062.52 65.2493 1061.78 64.9312 1060.8 64.9312H1059.57ZM1075.63 72.5098H1071.26L1070.43 75H1067.78L1072.28 62.9141H1074.59L1079.11 75H1076.46L1075.63 72.5098ZM1071.93 70.4927H1074.95L1073.43 65.9688L1071.93 70.4927ZM1088.36 70.061H1083.58V75H1081.09V62.9141H1088.96V64.9312H1083.58V68.0522H1088.36V70.061ZM1100.52 64.9312H1096.82V75H1094.33V64.9312H1090.67V62.9141H1100.52V64.9312ZM1108.62 72.5098H1104.26L1103.43 75H1100.78L1105.28 62.9141H1107.59L1112.11 75H1109.46L1108.62 72.5098ZM1104.93 70.4927H1107.95L1106.43 65.9688L1104.93 70.4927ZM1118.56 70.5757H1116.58V75H1114.09V62.9141H1118.58C1120.01 62.9141 1121.11 63.2323 1121.88 63.8687C1122.66 64.505 1123.05 65.4043 1123.05 66.5664C1123.05 67.391 1122.87 68.0799 1122.51 68.6333C1122.15 69.1812 1121.61 69.6183 1120.89 69.9448L1123.5 74.8838V75H1120.83L1118.56 70.5757ZM1116.58 68.5586H1118.59C1119.21 68.5586 1119.7 68.4009 1120.04 68.0854C1120.38 67.7645 1120.56 67.3245 1120.56 66.7656C1120.56 66.1956 1120.39 65.7474 1120.07 65.4209C1119.74 65.0944 1119.25 64.9312 1118.58 64.9312H1116.58V68.5586ZM1133.53 75H1131.04V62.9141H1133.53V75ZM1142.96 71.8291C1142.96 71.3587 1142.79 70.999 1142.46 70.75C1142.13 70.4954 1141.53 70.2298 1140.67 69.9531C1139.81 69.6709 1139.12 69.3942 1138.62 69.123C1137.25 68.3815 1136.56 67.3826 1136.56 66.1265C1136.56 65.4735 1136.74 64.8924 1137.11 64.3833C1137.48 63.8687 1138.01 63.4674 1138.69 63.1797C1139.39 62.8919 1140.16 62.748 1141.02 62.748C1141.88 62.748 1142.65 62.9058 1143.33 63.2212C1144 63.5311 1144.52 63.971 1144.89 64.541C1145.27 65.111 1145.46 65.7585 1145.46 66.4834H1142.97C1142.97 65.93 1142.79 65.5011 1142.45 65.1968C1142.1 64.8869 1141.61 64.7319 1140.98 64.7319C1140.37 64.7319 1139.89 64.862 1139.56 65.1221C1139.22 65.3766 1139.05 65.7142 1139.05 66.1348C1139.05 66.5277 1139.25 66.8569 1139.64 67.1226C1140.04 67.3882 1140.62 67.6372 1141.39 67.8696C1142.81 68.2957 1143.84 68.8242 1144.49 69.4551C1145.14 70.0859 1145.46 70.8717 1145.46 71.8125C1145.46 72.8584 1145.06 73.6802 1144.27 74.2778C1143.48 74.87 1142.42 75.166 1141.08 75.166C1140.15 75.166 1139.3 74.9972 1138.54 74.6597C1137.77 74.3166 1137.19 73.849 1136.78 73.2568C1136.39 72.6647 1136.19 71.9785 1136.19 71.1982H1138.69C1138.69 72.5319 1139.48 73.1987 1141.08 73.1987C1141.67 73.1987 1142.13 73.0798 1142.46 72.8418C1142.79 72.5983 1142.96 72.2607 1142.96 71.8291ZM1150.65 75H1148.16V62.9141H1150.65V75Z" fill="black"/>
<path d="M1185.18 63.9312H1181.47V74H1178.98V63.9312H1175.33V61.9141H1185.18V63.9312ZM1196.77 61.9141V69.8745C1196.77 71.1971 1196.36 72.243 1195.53 73.0122C1194.7 73.7814 1193.57 74.166 1192.14 74.166C1190.73 74.166 1189.61 73.7925 1188.78 73.0454C1187.95 72.2983 1187.52 71.2718 1187.51 69.9658V61.9141H1190V69.8911C1190 70.6825 1190.19 71.2607 1190.56 71.626C1190.94 71.9857 1191.47 72.1655 1192.14 72.1655C1193.54 72.1655 1194.25 71.4295 1194.27 69.9575V61.9141H1196.77ZM1208.93 63.9312H1205.23V74H1202.74V63.9312H1199.09V61.9141H1208.93V63.9312ZM1221.07 68.231C1221.07 69.4207 1220.86 70.4639 1220.44 71.3604C1220.02 72.2568 1219.42 72.9486 1218.63 73.4355C1217.85 73.9225 1216.96 74.166 1215.94 74.166C1214.94 74.166 1214.05 73.9253 1213.26 73.4438C1212.48 72.9624 1211.87 72.2762 1211.44 71.3853C1211.01 70.4888 1210.79 69.4595 1210.78 68.2974V67.6997C1210.78 66.5099 1210.99 65.464 1211.42 64.562C1211.85 63.6545 1212.46 62.96 1213.24 62.4785C1214.02 61.9915 1214.92 61.748 1215.93 61.748C1216.94 61.748 1217.83 61.9915 1218.61 62.4785C1219.4 62.96 1220 63.6545 1220.43 64.562C1220.86 65.464 1221.07 66.5072 1221.07 67.6914V68.231ZM1218.55 67.6831C1218.55 66.4159 1218.32 65.453 1217.87 64.7944C1217.42 64.1359 1216.77 63.8066 1215.93 63.8066C1215.09 63.8066 1214.45 64.1331 1213.99 64.7861C1213.54 65.4336 1213.31 66.3854 1213.31 67.6416V68.231C1213.31 69.465 1213.53 70.4224 1213.99 71.103C1214.44 71.7837 1215.09 72.124 1215.94 72.124C1216.78 72.124 1217.42 71.7975 1217.87 71.1445C1218.32 70.486 1218.55 69.5286 1218.55 68.2725V67.6831ZM1228.38 69.5757H1226.39V74H1223.9V61.9141H1228.39C1229.82 61.9141 1230.92 62.2323 1231.7 62.8687C1232.47 63.505 1232.86 64.4043 1232.86 65.5664C1232.86 66.391 1232.68 67.0799 1232.32 67.6333C1231.97 68.1812 1231.43 68.6183 1230.7 68.9448L1233.32 73.8838V74H1230.64L1228.38 69.5757ZM1226.39 67.5586H1228.4C1229.03 67.5586 1229.51 67.4009 1229.86 67.0854C1230.2 66.7645 1230.37 66.3245 1230.37 65.7656C1230.37 65.1956 1230.21 64.7474 1229.88 64.4209C1229.56 64.0944 1229.06 63.9312 1228.39 63.9312H1226.39V67.5586ZM1238.43 74H1235.94V61.9141H1238.43V74ZM1248.74 71.5098H1244.37L1243.54 74H1240.89L1245.39 61.9141H1247.7L1252.22 74H1249.58L1248.74 71.5098ZM1245.04 69.4927H1248.07L1246.55 64.9688L1245.04 69.4927ZM1256.86 71.9995H1262.15V74H1254.37V61.9141H1256.86V71.9995Z" fill="black"/>
<path d="M1294.57 69.9741C1294.47 71.2746 1293.99 72.2983 1293.12 73.0454C1292.26 73.7925 1291.12 74.166 1289.7 74.166C1288.15 74.166 1286.93 73.6458 1286.04 72.6055C1285.16 71.5596 1284.71 70.1263 1284.71 68.3057V67.5669C1284.71 66.4048 1284.92 65.381 1285.33 64.4956C1285.74 63.6102 1286.32 62.9323 1287.08 62.4619C1287.84 61.986 1288.73 61.748 1289.74 61.748C1291.13 61.748 1292.25 62.1216 1293.11 62.8687C1293.96 63.6157 1294.45 64.6644 1294.58 66.0146H1292.09C1292.03 65.2344 1291.81 64.6699 1291.44 64.3213C1291.07 63.9671 1290.5 63.79 1289.74 63.79C1288.91 63.79 1288.28 64.0889 1287.87 64.6865C1287.46 65.2786 1287.25 66.2 1287.24 67.4507V68.3638C1287.24 69.6698 1287.43 70.6243 1287.83 71.2275C1288.23 71.8307 1288.85 72.1323 1289.7 72.1323C1290.47 72.1323 1291.04 71.958 1291.42 71.6094C1291.8 71.2552 1292.02 70.7101 1292.08 69.9741H1294.57ZM1306.98 68.231C1306.98 69.4207 1306.77 70.4639 1306.35 71.3604C1305.93 72.2568 1305.33 72.9486 1304.54 73.4355C1303.76 73.9225 1302.86 74.166 1301.85 74.166C1300.85 74.166 1299.95 73.9253 1299.17 73.4438C1298.38 72.9624 1297.77 72.2762 1297.34 71.3853C1296.91 70.4888 1296.69 69.4595 1296.69 68.2974V67.6997C1296.69 66.5099 1296.9 65.464 1297.33 64.562C1297.76 63.6545 1298.36 62.96 1299.14 62.4785C1299.93 61.9915 1300.83 61.748 1301.83 61.748C1302.84 61.748 1303.73 61.9915 1304.51 62.4785C1305.3 62.96 1305.91 63.6545 1306.33 64.562C1306.76 65.464 1306.98 66.5072 1306.98 67.6914V68.231ZM1304.46 67.6831C1304.46 66.4159 1304.23 65.453 1303.78 64.7944C1303.32 64.1359 1302.67 63.8066 1301.83 63.8066C1301 63.8066 1300.35 64.1331 1299.9 64.7861C1299.45 65.4336 1299.22 66.3854 1299.21 67.6416V68.231C1299.21 69.465 1299.44 70.4224 1299.89 71.103C1300.34 71.7837 1301 72.124 1301.85 72.124C1302.69 72.124 1303.33 71.7975 1303.78 71.1445C1304.22 70.486 1304.45 69.5286 1304.46 68.2725V67.6831ZM1319.47 74H1316.98L1312.13 66.0479V74H1309.64V61.9141H1312.13L1316.99 69.8828V61.9141H1319.47V74ZM1331.34 63.9312H1327.64V74H1325.15V63.9312H1321.5V61.9141H1331.34V63.9312ZM1339.45 71.5098H1335.08L1334.25 74H1331.6L1336.1 61.9141H1338.41L1342.93 74H1340.28L1339.45 71.5098ZM1335.75 69.4927H1338.77L1337.25 64.9688L1335.75 69.4927ZM1354.22 69.9741C1354.12 71.2746 1353.64 72.2983 1352.77 73.0454C1351.91 73.7925 1350.77 74.166 1349.35 74.166C1347.8 74.166 1346.58 73.6458 1345.69 72.6055C1344.81 71.5596 1344.36 70.1263 1344.36 68.3057V67.5669C1344.36 66.4048 1344.57 65.381 1344.98 64.4956C1345.39 63.6102 1345.97 62.9323 1346.73 62.4619C1347.49 61.986 1348.38 61.748 1349.39 61.748C1350.78 61.748 1351.9 62.1216 1352.76 62.8687C1353.61 63.6157 1354.1 64.6644 1354.23 66.0146H1351.74C1351.68 65.2344 1351.46 64.6699 1351.09 64.3213C1350.72 63.9671 1350.15 63.79 1349.39 63.79C1348.56 63.79 1347.93 64.0889 1347.52 64.6865C1347.11 65.2786 1346.9 66.2 1346.89 67.4507V68.3638C1346.89 69.6698 1347.08 70.6243 1347.48 71.2275C1347.87 71.8307 1348.5 72.1323 1349.35 72.1323C1350.12 72.1323 1350.69 71.958 1351.07 71.6094C1351.45 71.2552 1351.67 70.7101 1351.73 69.9741H1354.22ZM1365.55 63.9312H1361.85V74H1359.36V63.9312H1355.71V61.9141H1365.55V63.9312ZM1381.56 61.9141V69.8745C1381.56 71.1971 1381.15 72.243 1380.32 73.0122C1379.49 73.7814 1378.36 74.166 1376.93 74.166C1375.52 74.166 1374.4 73.7925 1373.57 73.0454C1372.74 72.2983 1372.31 71.2718 1372.3 69.9658V61.9141H1374.79V69.8911C1374.79 70.6825 1374.98 71.2607 1375.35 71.626C1375.73 71.9857 1376.26 72.1655 1376.93 72.1655C1378.33 72.1655 1379.04 71.4295 1379.06 69.9575V61.9141H1381.56ZM1390.72 70.8291C1390.72 70.3587 1390.55 69.999 1390.22 69.75C1389.89 69.4954 1389.29 69.2298 1388.43 68.9531C1387.57 68.6709 1386.88 68.3942 1386.38 68.123C1385.01 67.3815 1384.32 66.3826 1384.32 65.1265C1384.32 64.4735 1384.5 63.8924 1384.87 63.3833C1385.24 62.8687 1385.77 62.4674 1386.45 62.1797C1387.14 61.8919 1387.92 61.748 1388.78 61.748C1389.64 61.748 1390.41 61.9058 1391.09 62.2212C1391.76 62.5311 1392.28 62.971 1392.65 63.541C1393.03 64.111 1393.22 64.7585 1393.22 65.4834H1390.73C1390.73 64.93 1390.55 64.5011 1390.21 64.1968C1389.86 63.8869 1389.37 63.7319 1388.74 63.7319C1388.13 63.7319 1387.65 63.862 1387.32 64.1221C1386.98 64.3766 1386.81 64.7142 1386.81 65.1348C1386.81 65.5277 1387.01 65.8569 1387.4 66.1226C1387.8 66.3882 1388.38 66.6372 1389.15 66.8696C1390.57 67.2957 1391.6 67.8242 1392.25 68.4551C1392.89 69.0859 1393.22 69.8717 1393.22 70.8125C1393.22 71.8584 1392.82 72.6802 1392.03 73.2778C1391.24 73.87 1390.17 74.166 1388.84 74.166C1387.91 74.166 1387.06 73.9972 1386.3 73.6597C1385.53 73.3166 1384.95 72.849 1384.54 72.2568C1384.15 71.6647 1383.95 70.9785 1383.95 70.1982H1386.44C1386.44 71.5319 1387.24 72.1987 1388.84 72.1987C1389.43 72.1987 1389.89 72.0798 1390.22 71.8418C1390.55 71.5983 1390.72 71.2607 1390.72 70.8291Z" fill="black"/>
<line x1="1280.49" y1="90.4878" x2="1399.49" y2="89.5123" stroke="black" stroke-width="3" stroke-linecap="round"/>
<line x1="1.5" y1="-1.5" x2="107.362" y2="-1.5" transform="matrix(0.999958 -0.00918592 0.00731354 0.999973 1043 94)" stroke="black" stroke-width="3" stroke-linecap="round"/>
<line x1="1.5" y1="-1.5" x2="103.843" y2="-1.5" transform="matrix(0.999955 -0.00949279 0.00707711 0.999975 1163 93)" stroke="black" stroke-width="3" stroke-linecap="round"/>
<line x1="1.5" y1="-1.5" x2="97.0923" y2="-1.5" transform="matrix(0.999949 -0.0101428 0.00662356 0.999978 937 95)" stroke="black" stroke-width="3" stroke-linecap="round"/>
<line x1="1.5" y1="-1.5" x2="97.0923" y2="-1.5" transform="matrix(0.999949 -0.0101428 0.00662356 0.999978 831 96)" stroke="black" stroke-width="3" stroke-linecap="round"/>
<line x1="1.5" y1="-1.5" x2="97.0923" y2="-1.5" transform="matrix(0.999949 -0.0101428 0.00662356 0.999978 722 96)" stroke="black" stroke-width="3" stroke-linecap="round"/>
<path d="M899.749 193.243L875 217.991" stroke="black" stroke-width="6" stroke-linecap="round" stroke-linejoin="bevel"/>
<line x1="899.749" y1="217.284" x2="875.707" y2="193.243" stroke="black" stroke-width="6" stroke-linecap="round"/>
<path d="M200.749 889.243L176 913.991" stroke="black" stroke-width="6" stroke-linecap="round" stroke-linejoin="bevel"/>
<line x1="200.749" y1="913.284" x2="176.707" y2="889.243" stroke="black" stroke-width="6" stroke-linecap="round"/>
<path d="M1383.75 287.243L1359 311.991" stroke="#DFDBDB" stroke-width="6" stroke-linecap="round" stroke-linejoin="bevel"/>
<line x1="1383.75" y1="311.284" x2="1359.71" y2="287.243" stroke="#DFDBDB" stroke-width="6" stroke-linecap="round"/>
<path d="M909.749 790.243L885 814.991" stroke="#796262" stroke-width="6" stroke-linecap="round" stroke-linejoin="bevel"/>
<line x1="909.749" y1="814.284" x2="885.707" y2="790.243" stroke="#796262" stroke-width="6" stroke-linecap="round"/>
<path d="M284.36 324.2H347.576L362.984 339.752V375.032L347.432 390.728H303.944V425H284.36V324.2ZM338.648 374.312L343.688 369.272V345.656L338.648 340.616H303.944V374.312H338.648ZM376.014 408.44V340.76L392.574 324.2H441.822L458.094 340.472V355.88H438.51V347.672L431.742 340.904H402.942L395.598 348.248V400.952L402.942 408.296H431.742L438.51 401.528V393.32H458.094V408.728L441.822 425H392.574L376.014 408.44ZM470.373 408.44V340.76L486.933 324.2H536.181L552.453 340.472V355.88H532.869V347.672L526.101 340.904H497.301L489.957 348.248V400.952L497.301 408.296H526.101L532.869 401.528V393.32H552.453V408.728L536.181 425H486.933L470.373 408.44Z" fill="url(#paint5_linear_41_163)"/>
<path d="M321.45 442H378.52L392.43 456.04V487.89L378.39 502.06H339.13V533H321.45V442ZM370.46 487.24L375.01 482.69V461.37L370.46 456.82H339.13V487.24H370.46ZM404.193 518.05V456.95L419.143 442H465.943L480.893 456.95V518.05L465.943 533H419.143L404.193 518.05ZM456.583 517.92L463.213 511.29V463.71L456.583 457.08H428.503L421.873 463.71V511.29L428.503 517.92H456.583ZM496.518 442H514.198V518.05H559.698V533H496.518V442ZM570.039 442H587.719V533H570.039V442ZM605.317 442H621.177L661.737 503.75H661.997V442H679.027V533H663.167L622.607 471.38H622.347V533H605.317V442ZM695.962 442H761.742V456.95H713.642V479.96H757.972V494.65H713.642V518.05H761.742V533H695.962V442ZM772.85 518.96V505.96H790.27V513.63L794.56 517.92H821.47L825.89 513.5V498.42L821.6 494.13H787.15L773.11 480.09V456.04L787.15 442H828.23L842.27 456.04V469.17H824.85V461.37L820.56 457.08H794.82L790.53 461.37V474.76L794.82 479.05H829.27L843.31 493.09V518.7L829.01 533H786.89L772.85 518.96Z" fill="url(#paint6_linear_41_163)"/>
<path d="M432.008 558.395C430.078 557.84 428.672 557.16 427.789 556.355C426.914 555.543 426.477 554.543 426.477 553.355C426.477 552.012 427.012 550.902 428.082 550.027C429.16 549.145 430.559 548.703 432.277 548.703C433.449 548.703 434.492 548.93 435.406 549.383C436.328 549.836 437.039 550.461 437.539 551.258C438.047 552.055 438.301 552.926 438.301 553.871H436.039C436.039 552.84 435.711 552.031 435.055 551.445C434.398 550.852 433.473 550.555 432.277 550.555C431.168 550.555 430.301 550.801 429.676 551.293C429.059 551.777 428.75 552.453 428.75 553.32C428.75 554.016 429.043 554.605 429.629 555.09C430.223 555.566 431.227 556.004 432.641 556.402C434.062 556.801 435.172 557.242 435.969 557.727C436.773 558.203 437.367 558.762 437.75 559.402C438.141 560.043 438.336 560.797 438.336 561.664C438.336 563.047 437.797 564.156 436.719 564.992C435.641 565.82 434.199 566.234 432.395 566.234C431.223 566.234 430.129 566.012 429.113 565.566C428.098 565.113 427.312 564.496 426.758 563.715C426.211 562.934 425.938 562.047 425.938 561.055H428.199C428.199 562.086 428.578 562.902 429.336 563.504C430.102 564.098 431.121 564.395 432.395 564.395C433.582 564.395 434.492 564.152 435.125 563.668C435.758 563.184 436.074 562.523 436.074 561.688C436.074 560.852 435.781 560.207 435.195 559.754C434.609 559.293 433.547 558.84 432.008 558.395ZM448.099 554.855C449.06 553.676 450.31 553.086 451.849 553.086C454.528 553.086 455.88 554.598 455.903 557.621V566H453.735V557.609C453.728 556.695 453.517 556.02 453.103 555.582C452.696 555.145 452.06 554.926 451.192 554.926C450.489 554.926 449.872 555.113 449.341 555.488C448.81 555.863 448.395 556.355 448.099 556.965V566H445.931V548H448.099V554.855ZM472.018 566C471.893 565.75 471.791 565.305 471.713 564.664C470.705 565.711 469.502 566.234 468.103 566.234C466.853 566.234 465.826 565.883 465.021 565.18C464.225 564.469 463.826 563.57 463.826 562.484C463.826 561.164 464.326 560.141 465.326 559.414C466.334 558.68 467.748 558.312 469.568 558.312H471.678V557.316C471.678 556.559 471.451 555.957 470.998 555.512C470.545 555.059 469.877 554.832 468.994 554.832C468.221 554.832 467.572 555.027 467.049 555.418C466.525 555.809 466.264 556.281 466.264 556.836H464.084C464.084 556.203 464.307 555.594 464.752 555.008C465.205 554.414 465.814 553.945 466.58 553.602C467.353 553.258 468.201 553.086 469.123 553.086C470.584 553.086 471.728 553.453 472.557 554.188C473.385 554.914 473.814 555.918 473.846 557.199V563.035C473.846 564.199 473.994 565.125 474.291 565.812V566H472.018ZM468.42 564.348C469.1 564.348 469.744 564.172 470.353 563.82C470.963 563.469 471.404 563.012 471.678 562.449V559.848H469.978C467.322 559.848 465.994 560.625 465.994 562.18C465.994 562.859 466.221 563.391 466.674 563.773C467.127 564.156 467.709 564.348 468.42 564.348ZM488.413 555.266C488.085 555.211 487.729 555.184 487.347 555.184C485.925 555.184 484.96 555.789 484.452 557V566H482.284V553.32H484.393L484.429 554.785C485.14 553.652 486.147 553.086 487.452 553.086C487.874 553.086 488.194 553.141 488.413 553.25V555.266ZM500.484 566.234C498.765 566.234 497.367 565.672 496.289 564.547C495.211 563.414 494.672 561.902 494.672 560.012V559.613C494.672 558.355 494.91 557.234 495.387 556.25C495.871 555.258 496.543 554.484 497.402 553.93C498.269 553.367 499.207 553.086 500.215 553.086C501.863 553.086 503.144 553.629 504.058 554.715C504.973 555.801 505.43 557.355 505.43 559.379V560.281H496.84C496.871 561.531 497.234 562.543 497.93 563.316C498.633 564.082 499.523 564.465 500.601 564.465C501.367 564.465 502.015 564.309 502.547 563.996C503.078 563.684 503.543 563.27 503.941 562.754L505.265 563.785C504.203 565.418 502.609 566.234 500.484 566.234ZM500.215 554.867C499.34 554.867 498.605 555.188 498.012 555.828C497.418 556.461 497.051 557.352 496.91 558.5H503.262V558.336C503.199 557.234 502.902 556.383 502.371 555.781C501.84 555.172 501.121 554.867 500.215 554.867ZM529.525 557.504L533.978 548.938H536.533L530.65 559.637V566H528.4V559.637L522.517 548.938H525.095L529.525 557.504ZM542.089 559.543C542.089 558.301 542.331 557.184 542.815 556.191C543.307 555.199 543.987 554.434 544.854 553.895C545.729 553.355 546.725 553.086 547.842 553.086C549.569 553.086 550.964 553.684 552.026 554.879C553.096 556.074 553.632 557.664 553.632 559.648V559.801C553.632 561.035 553.393 562.145 552.917 563.129C552.448 564.105 551.772 564.867 550.889 565.414C550.014 565.961 549.007 566.234 547.866 566.234C546.147 566.234 544.753 565.637 543.682 564.441C542.62 563.246 542.089 561.664 542.089 559.695V559.543ZM544.268 559.801C544.268 561.207 544.592 562.336 545.241 563.188C545.897 564.039 546.772 564.465 547.866 564.465C548.967 564.465 549.842 564.035 550.491 563.176C551.139 562.309 551.464 561.098 551.464 559.543C551.464 558.152 551.132 557.027 550.467 556.168C549.811 555.301 548.936 554.867 547.842 554.867C546.772 554.867 545.909 555.293 545.253 556.145C544.596 556.996 544.268 558.215 544.268 559.801ZM569.218 564.746C568.375 565.738 567.136 566.234 565.504 566.234C564.152 566.234 563.121 565.844 562.41 565.062C561.707 564.273 561.351 563.109 561.343 561.57V553.32H563.511V561.512C563.511 563.434 564.293 564.395 565.855 564.395C567.511 564.395 568.613 563.777 569.16 562.543V553.32H571.328V566H569.265L569.218 564.746ZM585.801 555.266C585.473 555.211 585.118 555.184 584.735 555.184C583.313 555.184 582.348 555.789 581.84 557V566H579.673V553.32H581.782L581.817 554.785C582.528 553.652 583.536 553.086 584.84 553.086C585.262 553.086 585.583 553.141 585.801 553.25V555.266ZM608.514 558.066L606.428 560.234V566H604.178V548.938H606.428V557.375L614.01 548.938H616.729L610.014 556.473L617.256 566H614.561L608.514 558.066ZM625.695 553.32L625.765 554.914C626.734 553.695 628 553.086 629.562 553.086C632.242 553.086 633.593 554.598 633.617 557.621V566H631.449V557.609C631.441 556.695 631.23 556.02 630.816 555.582C630.41 555.145 629.773 554.926 628.906 554.926C628.203 554.926 627.585 555.113 627.054 555.488C626.523 555.863 626.109 556.355 625.812 556.965V566H623.644V553.32H625.695ZM641.352 559.543C641.352 558.301 641.594 557.184 642.079 556.191C642.571 555.199 643.25 554.434 644.118 553.895C644.993 553.355 645.989 553.086 647.106 553.086C648.833 553.086 650.227 553.684 651.29 554.879C652.36 556.074 652.895 557.664 652.895 559.648V559.801C652.895 561.035 652.657 562.145 652.18 563.129C651.711 564.105 651.036 564.867 650.153 565.414C649.278 565.961 648.27 566.234 647.129 566.234C645.411 566.234 644.016 565.637 642.946 564.441C641.883 563.246 641.352 561.664 641.352 559.695V559.543ZM643.532 559.801C643.532 561.207 643.856 562.336 644.504 563.188C645.161 564.039 646.036 564.465 647.129 564.465C648.231 564.465 649.106 564.035 649.754 563.176C650.403 562.309 650.727 561.098 650.727 559.543C650.727 558.152 650.395 557.027 649.731 556.168C649.075 555.301 648.2 554.867 647.106 554.867C646.036 554.867 645.172 555.293 644.516 556.145C643.86 556.996 643.532 558.215 643.532 559.801ZM671.88 563.012L674.318 553.32H676.486L672.794 566H671.037L667.955 556.391L664.955 566H663.197L659.517 553.32H661.673L664.169 562.812L667.122 553.32H668.869L671.88 563.012ZM686.096 566H683.928V548H686.096V566ZM699.878 566.234C698.16 566.234 696.761 565.672 695.683 564.547C694.605 563.414 694.066 561.902 694.066 560.012V559.613C694.066 558.355 694.304 557.234 694.781 556.25C695.265 555.258 695.937 554.484 696.796 553.93C697.663 553.367 698.601 553.086 699.609 553.086C701.257 553.086 702.538 553.629 703.453 554.715C704.367 555.801 704.824 557.355 704.824 559.379V560.281H696.234C696.265 561.531 696.628 562.543 697.324 563.316C698.027 564.082 698.917 564.465 699.995 564.465C700.761 564.465 701.41 564.309 701.941 563.996C702.472 563.684 702.937 563.27 703.335 562.754L704.66 563.785C703.597 565.418 702.003 566.234 699.878 566.234ZM699.609 554.867C698.734 554.867 697.999 555.188 697.406 555.828C696.812 556.461 696.445 557.352 696.304 558.5H702.656V558.336C702.593 557.234 702.296 556.383 701.765 555.781C701.234 555.172 700.515 554.867 699.609 554.867ZM711.856 559.555C711.856 557.609 712.317 556.047 713.239 554.867C714.16 553.68 715.367 553.086 716.86 553.086C718.344 553.086 719.52 553.594 720.387 554.609V548H722.555V566H720.563L720.457 564.641C719.59 565.703 718.383 566.234 716.836 566.234C715.367 566.234 714.168 565.633 713.239 564.43C712.317 563.227 711.856 561.656 711.856 559.719V559.555ZM714.024 559.801C714.024 561.238 714.321 562.363 714.914 563.176C715.508 563.988 716.328 564.395 717.375 564.395C718.75 564.395 719.754 563.777 720.387 562.543V556.719C719.739 555.523 718.742 554.926 717.399 554.926C716.336 554.926 715.508 555.336 714.914 556.156C714.321 556.977 714.024 558.191 714.024 559.801ZM730.454 559.555C730.454 557.578 730.911 556.008 731.825 554.844C732.74 553.672 733.95 553.086 735.458 553.086C737.005 553.086 738.212 553.633 739.079 554.727L739.185 553.32H741.165V565.695C741.165 567.336 740.677 568.629 739.7 569.574C738.732 570.52 737.427 570.992 735.786 570.992C734.872 570.992 733.978 570.797 733.103 570.406C732.228 570.016 731.56 569.48 731.099 568.801L732.224 567.5C733.154 568.648 734.29 569.223 735.634 569.223C736.689 569.223 737.509 568.926 738.095 568.332C738.689 567.738 738.986 566.902 738.986 565.824V564.734C738.118 565.734 736.935 566.234 735.435 566.234C733.95 566.234 732.747 565.637 731.825 564.441C730.911 563.246 730.454 561.617 730.454 559.555ZM732.634 559.801C732.634 561.23 732.927 562.355 733.513 563.176C734.099 563.988 734.919 564.395 735.974 564.395C737.341 564.395 738.345 563.773 738.986 562.531V556.742C738.322 555.531 737.325 554.926 735.997 554.926C734.943 554.926 734.118 555.336 733.525 556.156C732.931 556.977 732.634 558.191 732.634 559.801ZM754.748 566.234C753.03 566.234 751.631 565.672 750.553 564.547C749.475 563.414 748.936 561.902 748.936 560.012V559.613C748.936 558.355 749.174 557.234 749.651 556.25C750.135 555.258 750.807 554.484 751.666 553.93C752.533 553.367 753.471 553.086 754.479 553.086C756.127 553.086 757.408 553.629 758.323 554.715C759.237 555.801 759.694 557.355 759.694 559.379V560.281H751.104C751.135 561.531 751.498 562.543 752.194 563.316C752.897 564.082 753.787 564.465 754.865 564.465C755.631 564.465 756.28 564.309 756.811 563.996C757.342 563.684 757.807 563.27 758.205 562.754L759.53 563.785C758.467 565.418 756.873 566.234 754.748 566.234ZM754.479 554.867C753.604 554.867 752.869 555.188 752.276 555.828C751.682 556.461 751.315 557.352 751.174 558.5H757.526V558.336C757.463 557.234 757.166 556.383 756.635 555.781C756.104 555.172 755.385 554.867 754.479 554.867Z" fill="black"/>
<line x1="242.477" y1="596.577" x2="902.476" y2="590.523" stroke="url(#paint7_linear_41_163)" stroke-width="5" stroke-linecap="round"/>
<line x1="206.481" y1="137.27" x2="577.484" y2="134.519" stroke="#4E90B3" stroke-width="5" stroke-linecap="round"/>
<path d="M1161.5 781.417C1178.8 796.162 1152 792.731 1121 795.673C1090 798.615 1010.59 852.122 1013.9 845.012C1028.83 812.932 1123.8 752.263 1161.5 781.417Z" fill="#5E9ABA"/>
<path d="M1257.97 900.811L1195.22 942.205L1182.54 868.112L1257.97 900.811Z" stroke="#B5FAFF" stroke-width="8"/>
<line x1="171.319" y1="641.392" x2="261.249" y2="765.66" stroke="url(#paint8_linear_41_163)" stroke-width="3.5" stroke-linecap="round"/>
<line x1="139.189" y1="636.672" x2="227.654" y2="758.914" stroke="url(#paint9_linear_41_163)" stroke-width="6" stroke-linecap="round"/>
<line x1="687.288" y1="700.012" x2="760.312" y2="794.278" stroke="black" stroke-opacity="0.36" stroke-width="3.5" stroke-linecap="round"/>
<line x1="699.507" y1="181.445" x2="771.612" y2="274.526" stroke="black" stroke-opacity="0.36" stroke-width="5" stroke-linecap="round"/>
<line x1="149.443" y1="189.398" x2="201.398" y2="261.557" stroke="black" stroke-opacity="0.41" stroke-width="3.5" stroke-linecap="round"/>
<line x1="764.517" y1="232.357" x2="885.357" y2="380.483" stroke="black" stroke-opacity="0.41" stroke-width="5" stroke-linecap="round"/>
<line x1="1052.46" y1="461.312" x2="1105.31" y2="529.545" stroke="black" stroke-opacity="0.41" stroke-width="3.5" stroke-linecap="round"/>
<circle cx="79.5" cy="490.352" r="10.123" transform="rotate(-90 79.5 490.352)" fill="#0F456B"/>
<circle cx="79.5" cy="413.631" r="10.123" transform="rotate(-90 79.5 413.631)" fill="#0F456B"/>
<circle cx="79.5" cy="326.254" r="10.123" transform="rotate(-90 79.5 326.254)" fill="#0F456B"/>
<circle cx="79.5" cy="238.877" r="10.123" transform="rotate(-90 79.5 238.877)" fill="#0F456B"/>
<circle cx="79.5" cy="151.5" r="10.123" transform="rotate(-90 79.5 151.5)" fill="#0F456B"/>
<circle cx="79.5" cy="64.1229" r="10.123" transform="rotate(-90 79.5 64.1229)" fill="#0F456B"/>
<circle cx="101.877" cy="446.664" r="10.123" transform="rotate(-90 101.877 446.664)" fill="#0F456B"/>
<circle cx="101.877" cy="369.943" r="10.123" transform="rotate(-90 101.877 369.943)" fill="#0F456B"/>
<circle cx="101.877" cy="282.566" r="10.123" transform="rotate(-90 101.877 282.566)" fill="#0F456B"/>
<circle cx="101.877" cy="195.188" r="10.123" transform="rotate(-90 101.877 195.188)" fill="#0F456B"/>
<circle cx="101.877" cy="107.811" r="10.123" transform="rotate(-90 101.877 107.811)" fill="#0F456B"/>
<circle cx="57.123" cy="446.664" r="10.123" transform="rotate(-90 57.123 446.664)" fill="#0F456B"/>
<circle cx="57.123" cy="369.943" r="10.123" transform="rotate(-90 57.123 369.943)" fill="#0F456B"/>
<circle cx="57.123" cy="282.566" r="10.123" transform="rotate(-90 57.123 282.566)" fill="#0F456B"/>
<circle cx="57.123" cy="195.188" r="10.123" transform="rotate(-90 57.123 195.188)" fill="#0F456B"/>
<circle cx="57.123" cy="107.811" r="10.123" transform="rotate(-90 57.123 107.811)" fill="#0F456B"/>
<path d="M250.464 105.75L279 56.9269L307.536 105.75H250.464Z" fill="white" stroke="url(#paint10_linear_41_163)" stroke-width="8"/>
<path d="M384 80.5C384 97.3999 370.514 111 354 111C337.486 111 324 97.3999 324 80.5C324 63.6001 337.486 50 354 50C370.514 50 384 63.6001 384 80.5Z" fill="white" stroke="url(#paint11_linear_41_163)" stroke-width="8"/>
<rect x="477" y="53" width="56" height="56" fill="white" stroke="url(#paint12_linear_41_163)" stroke-width="8"/>
<rect opacity="0.2" x="570.414" y="76.5649" width="16.0771" height="16.0771" transform="rotate(-45 570.414 76.5649)" fill="white" stroke="black" stroke-width="2"/>
<rect opacity="0.2" x="189.414" y="76.7825" width="16.0771" height="16.0771" transform="rotate(-45 189.414 76.7825)" fill="white" stroke="black" stroke-width="2"/>
<line x1="398.592" y1="51.4355" x2="454.936" y2="107.78" stroke="url(#paint13_linear_41_163)" stroke-width="8"/>
<line y1="-4" x2="79.6828" y2="-4" transform="matrix(0.707107 -0.707107 -0.707107 -0.707107 398.018 106.1)" stroke="url(#paint14_linear_41_163)" stroke-width="8"/>
</g>
<defs>
<linearGradient id="paint0_linear_41_163" x1="1359" y1="138" x2="1359" y2="1024" gradientUnits="userSpaceOnUse">
<stop offset="0.287065" stop-color="#257AA8" stop-opacity="0.69"/>
<stop offset="0.812747" stop-color="#257AA8" stop-opacity="0.23"/>
</linearGradient>
<linearGradient id="paint1_linear_41_163" x1="1629.5" y1="247" x2="1185" y2="537" gradientUnits="userSpaceOnUse">
<stop stop-color="#015D8E" stop-opacity="0.31"/>
<stop offset="0.48693" stop-color="#015D8E" stop-opacity="0.12"/>
<stop offset="0.977293" stop-color="#015D8E" stop-opacity="0.62"/>
</linearGradient>
<linearGradient id="paint2_linear_41_163" x1="1194.49" y1="-32.001" x2="1069.27" y2="476.426" gradientUnits="userSpaceOnUse">
<stop stop-color="#3782AA" stop-opacity="0.13"/>
<stop offset="0.323958" stop-color="#3782AA" stop-opacity="0.63"/>
<stop offset="1" stop-color="#3782AA" stop-opacity="0.71"/>
</linearGradient>
<linearGradient id="paint3_linear_41_163" x1="886" y1="708.5" x2="894" y2="1233" gradientUnits="userSpaceOnUse">
<stop stop-color="#73A5C0"/>
<stop offset="0.699966" stop-color="#0E5A95" stop-opacity="0.16"/>
<stop offset="1" stop-color="#0E7C95" stop-opacity="0.711918"/>
</linearGradient>
<linearGradient id="paint4_linear_41_163" x1="952" y1="737.5" x2="1059" y2="1068" gradientUnits="userSpaceOnUse">
<stop offset="0.291912" stop-color="#2278A1" stop-opacity="0.74"/>
<stop offset="0.964737" stop-color="#2278A1" stop-opacity="0"/>
</linearGradient>
<linearGradient id="paint5_linear_41_163" x1="489" y1="351" x2="511" y2="459" gradientUnits="userSpaceOnUse">
<stop stop-color="#1076B5"/>
<stop offset="0.279613" stop-color="#1076B5" stop-opacity="0.70899"/>
<stop offset="1" stop-color="#1076B5" stop-opacity="0"/>
</linearGradient>
<linearGradient id="paint6_linear_41_163" x1="675" y1="404" x2="675" y2="533" gradientUnits="userSpaceOnUse">
<stop offset="0.653214"/>
<stop offset="1" stop-opacity="0"/>
</linearGradient>
<linearGradient id="paint7_linear_41_163" x1="572.5" y1="596.05" x2="572.509" y2="597.05" gradientUnits="userSpaceOnUse">
<stop stop-color="#4E90B3"/>
<stop offset="1" stop-color="#B5FAFF" stop-opacity="0"/>
</linearGradient>
<linearGradient id="paint8_linear_41_163" x1="214.866" y1="704.552" x2="214.056" y2="705.138" gradientUnits="userSpaceOnUse">
<stop stop-opacity="0.34"/>
<stop offset="1" stop-opacity="0"/>
</linearGradient>
<linearGradient id="paint9_linear_41_163" x1="180.991" y1="699.552" x2="180.181" y2="700.138" gradientUnits="userSpaceOnUse">
<stop stop-opacity="0.34"/>
<stop offset="1" stop-opacity="0"/>
</linearGradient>
<linearGradient id="paint10_linear_41_163" x1="279" y1="49" x2="279" y2="130" gradientUnits="userSpaceOnUse">
<stop/>
<stop offset="1" stop-opacity="0"/>
</linearGradient>
<linearGradient id="paint11_linear_41_163" x1="354" y1="46" x2="354" y2="115" gradientUnits="userSpaceOnUse">
<stop/>
<stop offset="1" stop-opacity="0"/>
</linearGradient>
<linearGradient id="paint12_linear_41_163" x1="505" y1="49" x2="505" y2="113" gradientUnits="userSpaceOnUse">
<stop/>
<stop offset="1" stop-opacity="0"/>
</linearGradient>
<linearGradient id="paint13_linear_41_163" x1="423.936" y1="82.436" x2="423.229" y2="83.1431" gradientUnits="userSpaceOnUse">
<stop stop-opacity="0.55"/>
<stop offset="1" stop-opacity="0"/>
</linearGradient>
<linearGradient id="paint14_linear_41_163" x1="39.8414" y1="0" x2="39.8414" y2="1" gradientUnits="userSpaceOnUse">
<stop stop-opacity="0.55"/>
<stop offset="1" stop-opacity="0"/>
</linearGradient>
<clipPath id="clip0_41_163">
<rect width="1440" height="1024" fill="white"/>
</clipPath>
</defs>
</svg>
